<svg width="151" height="20" viewBox="0 0 151 20" fill="none" xmlns="http://www.w3.org/2000/svg">
<path d="M143.482 19.1841C142.927 19.1841 142.372 19.0675 141.817 18.8343C141.262 18.601 140.809 18.2318 140.457 17.7264C140.087 17.1628 139.81 16.5117 139.625 15.7732C139.44 15.0152 139.348 14.2475 139.348 13.4701C139.348 12.1096 139.588 10.8657 140.069 9.73847C140.42 8.90275 140.901 8.14476 141.512 7.46452C142.141 6.78428 142.825 6.24009 143.565 5.83194C144.305 5.4238 145.044 5.21973 145.784 5.21973C146.191 5.21973 146.58 5.28775 146.95 5.4238C147.338 5.55985 147.699 5.77364 148.032 6.06517C148.216 6.22065 148.364 6.37614 148.475 6.53162C148.605 6.6871 148.725 6.84259 148.836 6.99807C148.929 7.15355 148.975 7.2896 148.975 7.40621C148.975 7.54226 148.929 7.65888 148.836 7.75605C148.596 8.06702 148.337 8.50432 148.059 9.06795C147.8 9.63158 147.615 10.1952 147.504 10.7588C147.634 10.72 147.948 10.6811 148.448 10.6422C148.947 10.5839 149.428 10.5548 149.89 10.5548C150.038 10.5548 150.168 10.5645 150.279 10.5839C150.408 10.5839 150.519 10.5936 150.612 10.6131C150.871 10.6325 151 10.7102 151 10.8463C151 10.9823 150.88 11.0212 150.639 10.9629C150.565 10.924 150.473 10.9046 150.362 10.9046C150.251 10.9046 150.131 10.9046 150.001 10.9046C149.705 10.9046 149.373 10.924 149.003 10.9629C148.651 11.0018 148.337 11.0504 148.059 11.1087C147.782 11.1475 147.597 11.1767 147.504 11.1961C147.504 11.2739 147.495 11.3419 147.477 11.4002C147.44 11.6917 147.347 11.8375 147.199 11.8375C147.088 11.8375 147.042 11.7112 147.06 11.4585C147.079 11.4196 147.088 11.3516 147.088 11.2544C146.052 11.4488 145.1 11.7112 144.231 12.0416C143.38 12.372 142.584 12.751 141.845 13.1785C142.178 14.5585 142.658 15.5108 143.287 16.0356C143.935 16.5409 144.601 16.7935 145.285 16.7935C145.914 16.7935 146.496 16.6478 147.033 16.3562C147.588 16.0453 148.013 15.7343 148.309 15.4233C148.364 15.365 148.411 15.3359 148.448 15.3359C148.503 15.3359 148.531 15.3845 148.531 15.4816C148.531 15.5788 148.448 15.7149 148.281 15.8898C148.115 16.0647 147.911 16.2493 147.671 16.4437C147.449 16.6186 147.255 16.7644 147.088 16.881C146.718 17.1337 146.376 17.4932 146.062 17.9597C145.747 18.4067 145.377 18.7176 144.952 18.8926C144.49 19.0869 143.999 19.1841 143.482 19.1841ZM141.734 12.3331C142.566 12.0027 143.435 11.7014 144.342 11.4294C145.266 11.1378 146.21 10.924 147.171 10.788C147.227 9.3692 146.996 8.31968 146.478 7.63944C145.96 6.9592 145.368 6.61908 144.702 6.61908C144.221 6.61908 143.74 6.80372 143.26 7.17299C142.797 7.52283 142.418 8.03787 142.122 8.71811C141.826 9.39835 141.678 10.2438 141.678 11.2544C141.678 11.4294 141.678 11.6043 141.678 11.7792C141.697 11.9541 141.715 12.1387 141.734 12.3331Z" fill="black"/>
<path d="M121.866 18.9501C121.829 18.9501 121.811 18.9209 121.811 18.8626C121.811 18.7849 121.848 18.6877 121.922 18.5711C121.996 18.4545 122.069 18.3962 122.143 18.3962C122.347 18.3962 122.541 18.4059 122.726 18.4253C122.93 18.4253 123.096 18.4253 123.225 18.4253C123.651 18.4253 124.03 18.3476 124.363 18.1921C124.714 18.0366 124.964 17.7159 125.112 17.23C125.371 16.4332 125.584 15.51 125.75 14.4605C125.917 13.3915 126.046 12.3031 126.139 11.1953C126.25 10.0875 126.333 9.06714 126.388 8.13424C126.425 7.41513 126.287 6.91952 125.972 6.64743C125.676 6.3559 125.26 6.1907 124.724 6.15183C124.187 6.11295 123.605 6.09352 122.976 6.09352C122.735 6.09352 122.615 6.04493 122.615 5.94775C122.615 5.85058 122.661 5.77283 122.754 5.71453C122.865 5.63679 122.967 5.59791 123.059 5.59791L124.807 5.62707C125.436 5.6465 126.065 5.66594 126.694 5.68537C127.322 5.68537 127.896 5.68537 128.414 5.68537C128.654 5.68537 128.876 5.68537 129.079 5.68537C129.283 5.66594 129.459 5.65622 129.607 5.65622H129.634C129.819 5.65622 129.912 5.74368 129.912 5.9186C129.912 5.97691 129.903 6.04493 129.884 6.12267C129.866 6.18098 129.847 6.249 129.829 6.32674C129.736 6.73489 129.588 7.39569 129.385 8.30916C129.2 9.20319 129.006 10.2236 128.802 11.3702C128.599 12.4975 128.423 13.6345 128.275 14.7812C128.145 15.9084 128.081 16.9191 128.081 17.8131V17.9006C128.081 18.0949 128.108 18.2212 128.164 18.2795C128.238 18.3379 128.293 18.3573 128.33 18.3379C128.441 18.3379 128.515 18.2504 128.552 18.0755C128.589 17.9006 128.617 17.7354 128.636 17.5799C128.728 16.8413 128.839 15.957 128.969 14.9269C129.116 13.8774 129.301 12.8085 129.523 11.7201C129.764 10.6123 130.088 9.5919 130.494 8.659C130.901 7.70666 131.428 6.93896 132.076 6.3559C132.723 5.7534 133.528 5.45215 134.49 5.45215C135.877 5.45215 136.57 6.16154 136.57 7.58033C136.57 7.67751 136.561 7.7844 136.543 7.90102C136.543 8.01763 136.533 8.14396 136.515 8.28001C136.33 9.67936 136.108 11.1565 135.849 12.7113C135.609 14.2467 135.479 15.6946 135.461 17.0551C135.461 17.4633 135.562 17.7645 135.766 17.9589C135.988 18.1532 136.191 18.2698 136.376 18.3087C136.691 18.367 137.098 18.4059 137.597 18.4253C138.096 18.4447 138.457 18.4545 138.679 18.4545H138.707C138.799 18.4545 138.845 18.4933 138.845 18.5711C138.845 18.6488 138.799 18.7363 138.707 18.8335C138.633 18.9112 138.54 18.9501 138.429 18.9501H132.27C132.085 18.9501 131.993 18.882 131.993 18.746C131.993 18.5516 132.067 18.1727 132.215 17.609C132.381 17.0454 132.584 16.1222 132.825 14.8395C132.899 14.5091 132.973 14.0718 133.047 13.5276C133.121 12.9834 133.186 12.4003 133.241 11.7784C133.315 11.1565 133.352 10.5734 133.352 10.0292C133.352 9.73767 133.343 9.47529 133.324 9.24206C133.306 8.9894 133.269 8.77561 133.213 8.60069C133.139 8.3286 133.019 8.13424 132.853 8.01763C132.705 7.90102 132.547 7.84271 132.381 7.84271C132.178 7.84271 131.965 7.91073 131.743 8.04678C131.521 8.18283 131.327 8.35775 131.16 8.57154C130.753 9.07686 130.42 9.76682 130.162 10.6414C129.903 11.4966 129.69 12.4003 129.523 13.3527C129.375 14.305 129.255 15.1893 129.163 16.0056C129.07 16.8025 128.996 17.3952 128.941 17.7839C128.922 17.8422 128.913 17.9006 128.913 17.9589C128.913 17.9977 128.913 18.0366 128.913 18.0755C128.913 18.3476 129.033 18.4836 129.274 18.4836C129.403 18.4836 129.551 18.4739 129.718 18.4545C129.903 18.4156 130.097 18.3962 130.3 18.3962H130.356C130.448 18.3962 130.494 18.4447 130.494 18.5419C130.494 18.6197 130.467 18.6974 130.411 18.7752C130.356 18.8529 130.282 18.8918 130.189 18.8918C129.893 18.8918 129.699 18.882 129.607 18.8626C129.533 18.8237 129.338 18.8043 129.024 18.8043C128.432 18.8043 127.859 18.8043 127.304 18.8043C126.749 18.8043 126.185 18.8237 125.611 18.8626C125.316 18.8626 124.927 18.8723 124.446 18.8918C123.984 18.9112 123.512 18.9306 123.031 18.9501C122.569 18.9501 122.18 18.9501 121.866 18.9501Z" fill="black"/>
<path d="M115.282 19.2417C115.153 19.2417 115.023 19.232 114.894 19.2126C114.764 19.2126 114.625 19.2028 114.477 19.1834C113.331 19.0474 112.443 18.5518 111.814 17.6966C111.204 16.822 110.898 15.6753 110.898 14.2565C110.898 13.654 110.954 13.0224 111.065 12.3616C111.268 11.1371 111.601 10.0002 112.064 8.95064C112.526 7.88169 113.164 7.0071 113.978 6.32686C114.81 5.64662 115.846 5.29678 117.085 5.27734C117.159 5.27734 117.196 5.3065 117.196 5.3648C117.196 5.44254 117.122 5.54944 116.974 5.68549C116.845 5.8021 116.725 5.86041 116.614 5.86041C116.096 5.86041 115.606 6.18109 115.143 6.82246C114.699 7.4444 114.339 8.26069 114.061 9.27133C113.784 10.282 113.645 11.3509 113.645 12.4782C113.645 13.6832 113.775 14.7327 114.034 15.6267C114.311 16.5013 114.662 17.1816 115.088 17.6674C115.513 18.1533 115.957 18.3963 116.419 18.3963C116.882 18.3963 117.317 18.1339 117.723 17.6091C118.13 17.0649 118.399 16.375 118.528 15.5393C118.621 15.0728 118.676 14.5772 118.695 14.0525C118.732 13.5277 118.75 13.0127 118.75 12.5073C118.75 11.6716 118.722 10.9039 118.667 10.2042C118.611 9.50455 118.537 8.98951 118.445 8.65911C118.278 7.97887 118.075 7.49299 117.834 7.20145C117.612 6.89049 117.372 6.735 117.113 6.735C116.743 6.735 116.383 6.99738 116.031 7.52214C115.698 8.0469 115.458 8.69798 115.31 9.4754C115.217 9.96129 115.171 10.4666 115.171 10.9914C115.171 11.2246 115.18 11.4578 115.199 11.691C115.236 11.9243 115.291 12.1381 115.365 12.3324C115.402 12.3907 115.448 12.4782 115.504 12.5948C115.559 12.7114 115.587 12.8183 115.587 12.9155C115.587 13.0321 115.541 13.1001 115.448 13.1195C115.411 13.139 115.374 13.1487 115.337 13.1487C115.208 13.1487 115.079 13.0029 114.949 12.7114C114.875 12.5365 114.82 12.3324 114.783 12.0992C114.764 11.8465 114.755 11.5939 114.755 11.3412C114.755 11.0302 114.773 10.7096 114.81 10.3791C114.847 10.0293 114.894 9.69891 114.949 9.38794C115.06 8.82431 115.245 8.24125 115.504 7.63875C115.781 7.01682 116.142 6.49206 116.586 6.06448C117.03 5.6369 117.557 5.42311 118.167 5.42311C118.389 5.42311 118.667 5.4717 119 5.56888C119.814 5.84097 120.442 6.39488 120.886 7.23061C121.349 8.0469 121.58 9.07697 121.58 10.3208C121.58 10.9039 121.524 11.5161 121.413 12.1575C121.228 13.3819 120.896 14.5383 120.415 15.6267C119.934 16.6957 119.277 17.5703 118.445 18.2505C117.612 18.9113 116.558 19.2417 115.282 19.2417Z" fill="black"/>
<path d="M94.44 19.2415C94.0516 19.2415 93.8574 19.1151 93.8574 18.8625C93.8574 18.707 93.9037 18.5612 93.9961 18.4252C94.1071 18.2697 94.1996 18.1531 94.2736 18.0753C94.551 17.8421 94.8285 17.5895 95.1059 17.3174C95.4018 17.0453 95.7533 16.6468 96.1602 16.1221C96.5856 15.5779 97.1127 14.8296 97.7416 13.8773L104.65 3.38214C104.927 2.93512 105.066 2.58528 105.066 2.33262C105.066 1.98278 104.863 1.75928 104.456 1.6621C104.049 1.56492 103.531 1.51633 102.902 1.51633C102.514 1.51633 102.097 1.52605 101.653 1.54549C101.228 1.54549 100.793 1.54549 100.35 1.54549C99.4802 1.54549 98.7496 1.89532 98.1577 2.595C97.5659 3.29468 97.2514 4.33447 97.2144 5.71439C97.1959 5.96705 97.1035 6.11282 96.937 6.15169C96.789 6.17112 96.7243 6.11282 96.7428 5.97677C96.7613 5.43258 96.7798 4.96613 96.7983 4.57742C96.8168 4.18871 96.8353 3.80972 96.8538 3.44044C96.8723 3.05173 96.8815 2.61444 96.8815 2.12855C96.8815 1.44831 96.9925 0.981858 97.2144 0.729198C97.4549 0.4571 97.908 0.340487 98.5739 0.379359C99.2028 0.398794 99.9334 0.427947 100.766 0.466819C101.617 0.486254 102.504 0.505689 103.429 0.525125C104.354 0.525125 105.26 0.525125 106.148 0.525125C106.629 0.525125 107.091 0.525125 107.535 0.525125C107.998 0.525125 108.432 0.515407 108.839 0.495972C108.913 0.495972 109.015 0.495972 109.144 0.495972C109.292 0.476537 109.44 0.466819 109.588 0.466819C109.792 0.466819 109.977 0.486254 110.143 0.525125C110.328 0.563995 110.421 0.632019 110.421 0.729198C110.421 0.787503 110.365 0.874962 110.254 0.991575C110.051 1.16649 109.829 1.39972 109.588 1.69125C109.366 1.98278 108.987 2.43952 108.451 3.06145C107.618 4.01379 106.786 5.07302 105.954 6.23915C105.14 7.38584 104.354 8.53253 103.596 9.67922C102.856 10.8259 102.199 11.8851 101.626 12.8569C101.052 13.8093 100.599 14.577 100.266 15.16C99.9334 15.7431 99.7669 16.0346 99.7669 16.0346C99.6004 16.2873 99.5172 16.5108 99.5172 16.7051C99.5172 17.0355 99.7114 17.2979 100.1 17.4923C100.507 17.6866 101.034 17.8227 101.681 17.9004C102.347 17.9782 103.078 18.017 103.873 18.017C105.297 18.017 106.49 17.6089 107.452 16.7926C108.414 15.9763 109.126 14.9171 109.588 13.6149C109.625 13.5566 109.653 13.5274 109.672 13.5274C109.727 13.5274 109.773 13.5663 109.81 13.6441C109.866 13.7024 109.884 13.7704 109.866 13.8481C109.792 14.0619 109.709 14.402 109.616 14.8685C109.524 15.3349 109.403 15.8403 109.255 16.3845C109.126 16.9286 108.95 17.434 108.728 17.9004C108.525 18.3669 108.266 18.7167 107.951 18.9499C107.785 19.0665 107.452 19.1248 106.953 19.1248C106.472 19.1248 105.824 19.0957 105.011 19.0374C104.215 18.9791 103.253 18.9499 102.125 18.9499C101.755 18.9499 101.311 18.9499 100.793 18.9499C100.276 18.9305 99.7392 18.9208 99.1843 18.9208C98.4444 18.9208 97.7046 18.9402 96.9648 18.9791C96.2434 19.018 95.5868 19.086 94.9949 19.1832C94.8839 19.2026 94.7822 19.2123 94.6897 19.2123C94.5973 19.2317 94.514 19.2415 94.44 19.2415Z" fill="black"/>
<path d="M78.3182 19.416C76.7275 19.416 75.2941 19.105 74.0178 18.4831C72.7601 17.8417 71.7613 16.9477 71.0215 15.801C70.3001 14.6349 69.9395 13.2841 69.9395 11.7487C69.9395 10.3494 70.2076 9.0472 70.744 7.8422C71.2989 6.63721 72.0388 5.55854 72.9636 4.6062C73.9069 3.63443 74.9426 2.80842 76.0709 2.12818C77.2176 1.42851 78.3921 0.903748 79.5944 0.55391C80.8151 0.184637 81.9711 0 83.0624 0C83.4138 0 83.8022 0.0485886 84.2276 0.145766C84.6715 0.242943 85.06 0.42758 85.3929 0.699676C85.7258 0.952337 85.8923 1.33133 85.8923 1.83665C85.8923 2.03101 85.846 2.25451 85.7536 2.50717L85.1709 4.37298C85.0784 4.70338 84.986 5.0435 84.8935 5.39334C84.801 5.74318 84.6993 6.0833 84.5883 6.4137C84.5698 6.53031 84.4958 6.58862 84.3664 6.58862C84.2554 6.58862 84.1999 6.51088 84.1999 6.35539C84.1999 6.25821 84.2091 6.19019 84.2276 6.15132C84.3201 5.82092 84.4033 5.49051 84.4773 5.16011C84.5698 4.81027 84.616 4.46044 84.616 4.1106C84.616 3.56641 84.4958 3.15826 84.2554 2.88617C84.0149 2.59463 83.7005 2.39056 83.3121 2.27395C82.9422 2.15734 82.5445 2.08931 82.1191 2.06987C81.6937 2.05044 81.296 2.04072 80.9261 2.04072C79.8533 2.04072 78.799 2.22536 77.7633 2.59463C76.7275 2.94447 75.7934 3.46923 74.9611 4.1689C74.1288 4.84914 73.4629 5.67515 72.9636 6.64692C72.4827 7.6187 72.2422 8.7168 72.2422 9.94123C72.2422 11.3989 72.5844 12.6428 73.2687 13.6728C73.9531 14.6835 74.8594 15.4609 75.9877 16.0051C77.1159 16.5299 78.3274 16.7922 79.6221 16.7922C80.6764 16.7922 81.7214 16.6076 82.7572 16.2383C83.793 15.8496 84.6993 15.2763 85.4761 14.5183C85.6241 14.3628 85.7628 14.2073 85.8923 14.0518C86.0217 13.8963 86.1512 13.7311 86.2807 13.5562C86.3177 13.4979 86.3732 13.4396 86.4472 13.3813C86.5211 13.3036 86.6044 13.2647 86.6969 13.2647C86.8078 13.2647 114.993 11.8542 114.993 12.573C114.993 12.6702 86.8263 13.634 86.7523 13.7311C86.6784 13.8089 86.6044 13.8769 86.5304 13.9352C85.6796 14.7709 84.949 15.7136 84.3386 16.7631C84.0427 17.2684 83.7282 17.7251 83.3953 18.1333C83.0624 18.522 82.6 18.7941 82.0081 18.9496C81.4347 19.1245 80.8244 19.2411 80.177 19.2994C79.5481 19.3771 78.9285 19.416 78.3182 19.416Z" fill="black"/>
<path d="M56.9261 19.4162C55.9643 19.4162 55.0395 19.2607 54.1517 18.9497C53.2639 18.6193 52.5333 18.0849 51.9599 17.3463C51.405 16.6078 51.1276 15.6166 51.1276 14.3727C51.1276 14.0034 51.1553 13.605 51.2108 13.1774C51.4697 11.4088 51.7102 9.64988 51.9321 7.90069C52.1541 6.13206 52.3483 4.36344 52.5148 2.59481C52.5518 2.2061 52.4593 1.86598 52.2373 1.57445C52.0339 1.28292 51.8027 1.11772 51.5437 1.07885C51.3588 1.03998 51.0351 1.01082 50.5727 0.991386C50.1288 0.971951 49.6941 0.962233 49.2687 0.962233C48.8433 0.942798 48.5566 0.942798 48.4087 0.962233C48.2977 0.962233 48.2422 0.923362 48.2422 0.84562C48.2422 0.76788 48.2884 0.690138 48.3809 0.612396C48.4734 0.515219 48.5659 0.46663 48.6583 0.46663C49.4167 0.46663 50.2952 0.486066 51.294 0.524936C52.3113 0.563806 53.2731 0.583242 54.1794 0.583242C54.4014 0.583242 54.6141 0.583242 54.8175 0.583242C55.021 0.583242 55.2152 0.573524 55.4002 0.554089C55.7146 0.534654 56.1677 0.515218 56.7596 0.495783C57.37 0.456912 57.9803 0.437476 58.5907 0.437476H58.6185C58.7664 0.437476 58.8404 0.534654 58.8404 0.729009C58.8404 0.923364 58.7572 0.991387 58.5907 0.93308C57.8509 0.89421 57.2775 0.923363 56.8706 1.02054C56.4637 1.11772 56.1492 1.36066 55.9273 1.74937C55.7238 2.11864 55.5296 2.71142 55.3447 3.52771C55.1597 4.344 54.984 5.25747 54.8175 6.26811C54.6696 7.25932 54.5308 8.27968 54.4014 9.3292C54.2904 10.3593 54.1794 11.3408 54.0684 12.2737C53.976 13.1871 53.8927 13.9743 53.8187 14.6351C53.8002 14.7128 53.791 14.7906 53.791 14.8683C53.791 14.946 53.791 15.0238 53.791 15.1015C53.791 16.1705 54.1147 16.9868 54.762 17.5504C55.4094 18.114 56.1492 18.4153 56.9816 18.4541C57.037 18.4541 57.1573 18.4541 57.3422 18.4541C57.5272 18.4541 57.7122 18.4541 57.8971 18.4541C58.0821 18.4541 58.1931 18.4541 58.23 18.4541C59.0439 18.4153 59.8022 18.1237 60.5051 17.5795C61.2264 17.0354 61.6796 16.2288 61.8645 15.1598C62.0865 13.8771 62.2992 12.468 62.5026 10.9326C62.7061 9.39722 62.891 7.86182 63.0575 6.32642C63.2425 4.77158 63.3904 3.37223 63.5014 2.12836C63.5384 1.73965 63.4459 1.45784 63.224 1.28292C63.0205 1.08856 62.8356 0.971951 62.6691 0.93308C62.5396 0.89421 62.4101 0.874775 62.2807 0.874775C62.1697 0.874775 62.068 0.874775 61.9755 0.874775C61.883 0.874775 61.7905 0.874775 61.698 0.874775C61.6056 0.874775 61.5038 0.884492 61.3929 0.903928C61.2819 0.903928 61.2264 0.865057 61.2264 0.787315C61.2264 0.709573 61.2726 0.631831 61.3651 0.554089C61.4576 0.456912 61.5501 0.418041 61.6426 0.437476C62.105 0.456912 62.4656 0.476348 62.7246 0.495783C63.002 0.495783 63.2425 0.505501 63.4459 0.524936C63.6679 0.524936 63.9176 0.524936 64.195 0.524936H65.277C65.5545 0.524936 65.9614 0.524936 66.4978 0.524936C67.0526 0.505501 67.663 0.495783 68.3289 0.495783C68.9947 0.476348 69.6328 0.46663 70.2432 0.46663C70.3172 0.46663 70.3542 0.495783 70.3542 0.554089C70.3542 0.631831 70.3079 0.729008 70.2155 0.84562C70.123 0.962234 70.0398 1.01082 69.9658 0.991386C69.115 0.971951 68.4398 1.03026 67.9405 1.16631C67.4596 1.30235 67.0804 1.61332 66.803 2.09921C66.544 2.58509 66.3221 3.33336 66.1371 4.344C66.0076 5.06311 65.8597 6.00573 65.6932 7.17186C65.5267 8.33799 65.3695 9.50411 65.2215 10.6702C65.1476 11.2727 65.0921 11.9141 65.0551 12.5944C65.0181 13.2746 64.9441 13.9548 64.8331 14.6351C64.6112 15.9178 64.195 16.909 63.5846 17.6087C62.9928 18.2889 62.2344 18.7554 61.3096 19.0081C60.3848 19.2801 59.3213 19.4162 58.1191 19.4162H56.9261Z" fill="black"/>
<path d="M41.4016 19.0081C39.9589 18.9692 38.7659 18.9401 37.8226 18.9206C36.8978 18.9012 36.1395 18.8817 35.5476 18.8623C34.9742 18.8429 34.4841 18.8429 34.0772 18.8623C33.7997 18.8623 33.3836 18.872 32.8287 18.8915C32.2738 18.9109 31.6634 18.9303 30.9976 18.9498C30.3502 18.9498 29.7213 18.9498 29.111 18.9498H29.0832C29.0277 18.9498 29 18.9206 29 18.8623C29 18.7846 29.0462 18.6971 29.1387 18.5999C29.2312 18.4833 29.3144 18.4347 29.3884 18.4542C29.8323 18.4542 30.23 18.4639 30.5814 18.4833C30.9513 18.4833 31.275 18.4833 31.5525 18.4833C32.2368 18.4833 32.7269 18.4153 33.0229 18.2792C33.3373 18.1238 33.5685 17.8031 33.7165 17.3172C33.883 16.8313 34.0679 16.0928 34.2714 15.1015C34.7153 12.9442 35.0667 10.8646 35.3256 8.86277C35.5846 6.86092 35.8065 4.7716 35.9915 2.59483C36.0285 2.20612 35.936 1.866 35.7141 1.57447C35.5106 1.28294 35.2794 1.11774 35.0205 1.07887C34.8355 1.04 34.5118 1.01084 34.0494 0.991408C33.6055 0.971973 33.1709 0.962256 32.7454 0.962256C32.32 0.94282 32.0333 0.94282 31.8854 0.962256C31.7744 0.962256 31.7189 0.923385 31.7189 0.845643C31.7189 0.767902 31.7652 0.690161 31.8576 0.612419C31.9501 0.515241 32.0426 0.466653 32.1351 0.466653C32.9304 0.466653 33.8645 0.486088 34.9372 0.524958C36.01 0.563829 36.9995 0.583264 37.9058 0.583264H38.4052C38.8121 0.563829 39.2838 0.505523 39.8202 0.408346C40.3566 0.311168 40.9299 0.213991 41.5403 0.116814C42.1692 0.0196369 42.7795 -0.00951649 43.3714 0.0293539C44.0928 0.0487903 44.7771 0.233427 45.4245 0.583264C46.0903 0.913667 46.6267 1.39955 47.0336 2.04092C47.459 2.68229 47.6717 3.49858 47.6717 4.48979C47.6717 4.6064 47.6625 4.73273 47.644 4.86878C47.644 5.00483 47.6347 5.14088 47.6163 5.27693C47.5053 6.20983 47.1723 7.11358 46.6175 7.98817C46.0811 8.86277 45.4245 9.64019 44.6476 10.3204C43.8893 10.9812 43.1032 11.4768 42.2894 11.8072C41.79 12.021 41.3276 12.1765 40.9022 12.2737C40.4953 12.3514 40.1346 12.3903 39.8202 12.3903C39.3393 12.3903 38.9509 12.332 38.6549 12.2154C38.3775 12.0793 38.1925 11.953 38.1 11.8364C37.9706 11.6809 37.9058 11.4963 37.9058 11.2825C37.9058 11.1076 37.9428 10.9618 38.0168 10.8452C38.1093 10.7286 38.1925 10.7189 38.2665 10.816C38.4145 10.9521 38.5347 11.0978 38.6272 11.2533C38.7197 11.4088 38.8306 11.5351 38.9601 11.6323C39.1081 11.7489 39.256 11.8267 39.404 11.8655C39.5705 11.9044 39.7277 11.9239 39.8757 11.9239C40.5045 11.9239 41.0779 11.7003 41.5958 11.2533C42.1137 10.8063 42.5576 10.2232 42.9275 9.50414C43.3159 8.76559 43.6119 7.95902 43.8153 7.08442C44.0188 6.20983 44.1205 5.34495 44.1205 4.48979C44.1205 3.45971 43.9263 2.58512 43.5379 1.866C43.168 1.14689 42.5576 0.787337 41.7068 0.787337C40.856 0.787337 40.2363 1.10802 39.8479 1.74939C39.4595 2.39076 39.1173 3.19733 38.8214 4.16911C38.7474 4.40233 38.6457 4.82991 38.5162 5.45185C38.3867 6.07378 38.2388 6.94838 38.0723 8.07563C37.9243 9.18345 37.7486 10.6217 37.5452 12.3903C37.5267 12.5652 37.4897 12.9442 37.4342 13.5273C37.3972 14.1103 37.3787 14.7128 37.3787 15.3348C37.3787 15.879 37.4064 16.3551 37.4619 16.7633C37.5359 17.2103 37.7116 17.5893 37.9891 17.9003C38.2665 18.1918 38.6087 18.3667 39.0156 18.425C39.441 18.4833 39.9589 18.5125 40.5693 18.5125C40.7727 18.5125 40.9762 18.5125 41.1796 18.5125C41.3831 18.493 41.5773 18.4736 41.7623 18.4542C41.8177 18.4542 41.8455 18.4833 41.8455 18.5416C41.8455 18.6194 41.7993 18.7263 41.7068 18.8623C41.6143 18.9789 41.5126 19.0275 41.4016 19.0081Z" fill="black"/>
<path d="M0 2.05405C0 0.919631 1.02335 0 2.28571 0H10.8571V4.62162C10.8571 7.45768 8.29877 9.75676 5.14286 9.75676H0V2.05405Z" fill="#6800F9"/>
<path d="M0 9.75684H4.57143V19.0001H0V9.75684Z" fill="#6800F9"/>
<path fill-rule="evenodd" clip-rule="evenodd" d="M10.7503 4.14486V0H17.6375L20.7944 0.000160585L14.086 11.6289L24 15.1417L22.3224 19L10.3937 14.7733C8.67582 14.1646 8.03179 12.2715 9.07506 10.8974L12.9002 4.14486H10.7503Z" fill="black"/>
</svg>
